<svg xmlns="http://www.w3.org/2000/svg" viewBox="0 0 800 500" fill="none">
  <defs>
    <linearGradient id="g4" x1="400" y1="0" x2="400" y2="500" gradientUnits="userSpaceOnUse">
      <stop stop-color="#7E22CE" stop-opacity="0.22"/>
      <stop offset="0.4" stop-color="#A855F7" stop-opacity="0.18"/>
      <stop offset="1" stop-color="#FAF5FF"/>
    </linearGradient>
    <radialGradient id="r4" cx="0" cy="0" r="1" gradientUnits="userSpaceOnUse" gradientTransform="translate(520 180) rotate(90) scale(200 280)">
      <stop stop-color="#C084FC" stop-opacity="0.35"/>
      <stop offset="1" stop-color="#C084FC" stop-opacity="0"/>
    </radialGradient>
  </defs>
  <rect width="800" height="500" fill="url(#g4)"/>
  <rect width="800" height="500" fill="url(#r4)"/>
  <g stroke="#6B21A8" stroke-width="2" opacity="0.85">
    <circle cx="280" cy="220" r="12" fill="white" fill-opacity="0.6"/>
    <circle cx="400" cy="160" r="12" fill="white" fill-opacity="0.6"/>
    <circle cx="520" cy="220" r="12" fill="white" fill-opacity="0.6"/>
    <circle cx="400" cy="300" r="12" fill="white" fill-opacity="0.6"/>
    <line x1="292" y1="220" x2="388" y2="170"/>
    <line x1="412" y1="170" x2="508" y2="220"/>
    <line x1="400" y1="172" x2="400" y2="288"/>
    <line x1="280" y1="232" x2="388" y2="292"/>
    <line x1="520" y1="232" x2="412" y2="292"/>
  </g>
  <rect x="560" y="280" width="160" height="100" rx="14" fill="white" fill-opacity="0.45" stroke="#7E22CE" stroke-width="2"/>
  <path d="M590 315 H690 M590 335 H660 M590 355 H675" stroke="#6B21A8" stroke-width="2" stroke-linecap="round"/>
  <circle cx="400" cy="160" r="28" fill="#A855F7" fill-opacity="0.15" stroke="none"/>
</svg>
